<svg width="376" height="242" viewBox="0 0 376 242" fill="none" xmlns="http://www.w3.org/2000/svg">
<g filter="url(#filter0_f_218_8835)">
<ellipse cx="187.361" cy="120.861" rx="139" ry="72.5" fill="#FFEEEE"/>
<path d="M187.361 49.1107C225.649 49.1107 260.275 57.2066 285.302 70.2601C310.365 83.3326 325.611 101.261 325.611 120.861C325.611 140.46 310.365 158.389 285.302 171.461C260.275 184.515 225.649 192.611 187.361 192.611C149.073 192.611 114.446 184.515 89.4194 171.461C64.3565 158.389 49.1108 140.46 49.1108 120.861C49.1108 101.261 64.3565 83.3326 89.4194 70.2601C114.446 57.2066 149.073 49.1107 187.361 49.1107Z" stroke="#6A0909" stroke-width="1.5"/>
</g>
<mask id="path-3-outside-1_218_8835" maskUnits="userSpaceOnUse" x="132.361" y="101.361" width="111" height="40" fill="black">
<rect fill="white" x="132.361" y="101.361" width="111" height="40"/>
<path d="M134.309 103.366H141.56V132.367H156.64V138.361H134.309V103.366ZM172.977 138.892C170.367 138.892 168.095 138.328 166.162 137.201C164.229 136.073 162.738 134.486 161.691 132.44C160.644 130.377 160.12 128.001 160.12 125.31C160.12 122.62 160.636 120.251 161.667 118.205C162.714 116.159 164.204 114.58 166.138 113.468C168.087 112.34 170.367 111.776 172.977 111.776C175.587 111.776 177.867 112.34 179.817 113.468C181.766 114.58 183.265 116.159 184.312 118.205C185.359 120.251 185.883 122.62 185.883 125.31C185.883 128.001 185.359 130.377 184.312 132.44C183.265 134.486 181.766 136.073 179.817 137.201C177.867 138.328 175.587 138.892 172.977 138.892ZM173.026 133.334C174.218 133.334 175.233 132.996 176.071 132.319C176.908 131.626 177.537 130.675 177.956 129.467C178.375 128.259 178.584 126.873 178.584 125.31C178.584 123.747 178.375 122.362 177.956 121.153C177.537 119.929 176.908 118.97 176.071 118.278C175.233 117.585 174.218 117.238 173.026 117.238C171.817 117.238 170.786 117.585 169.932 118.278C169.094 118.97 168.458 119.929 168.023 121.153C167.588 122.362 167.37 123.747 167.37 125.31C167.37 126.857 167.588 128.243 168.023 129.467C168.458 130.675 169.094 131.626 169.932 132.319C170.786 132.996 171.817 133.334 173.026 133.334ZM205.362 119.897C205.217 118.978 204.757 118.245 203.984 117.698C203.211 117.134 202.236 116.852 201.06 116.852C200.286 116.852 199.586 116.972 198.957 117.214C198.345 117.44 197.862 117.762 197.507 118.181C197.153 118.584 196.984 119.043 197 119.558C196.951 120.799 198.079 121.669 200.383 122.169L205.072 123.135C207.617 123.667 209.51 124.513 210.751 125.673C212.008 126.833 212.644 128.355 212.66 130.24C212.644 131.948 212.145 133.455 211.162 134.76C210.195 136.065 208.834 137.08 207.078 137.805C205.321 138.53 203.299 138.892 201.012 138.892C198.675 138.892 196.653 138.562 194.945 137.902C193.238 137.225 191.892 136.266 190.91 135.026C189.943 133.769 189.363 132.287 189.169 130.579H196.371C196.532 131.61 197.016 132.391 197.821 132.923C198.627 133.455 199.69 133.721 201.012 133.721C202.317 133.721 203.364 133.471 204.153 132.971C204.959 132.472 205.362 131.803 205.362 130.965C205.362 130.289 205.072 129.741 204.492 129.322C203.928 128.887 203.025 128.533 201.785 128.259L197.435 127.389C194.954 126.905 193.068 126.027 191.78 124.754C190.491 123.482 189.862 121.878 189.894 119.945C189.878 118.286 190.321 116.844 191.224 115.619C192.126 114.379 193.415 113.428 195.09 112.767C196.766 112.107 198.724 111.776 200.963 111.776C203.138 111.776 205.039 112.107 206.667 112.767C208.294 113.428 209.567 114.37 210.485 115.595C211.42 116.803 211.951 118.237 212.08 119.897H205.362ZM228.949 138.892C226.291 138.892 223.987 138.345 222.037 137.249C220.104 136.153 218.613 134.591 217.566 132.561C216.519 130.514 215.995 128.114 215.995 125.359C215.995 122.668 216.511 120.3 217.542 118.253C218.589 116.191 220.072 114.596 221.989 113.468C223.906 112.34 226.13 111.776 228.659 111.776C231.011 111.776 233.114 112.276 234.967 113.275C236.836 114.258 238.302 115.748 239.365 117.746C240.445 119.744 240.985 122.185 240.985 125.069V127.099H223.052C223.052 128.404 223.294 129.54 223.777 130.506C224.277 131.473 224.978 132.222 225.88 132.754C226.798 133.269 227.87 133.527 229.094 133.527C230.27 133.527 231.285 133.294 232.139 132.826C232.993 132.343 233.605 131.69 233.976 130.869H240.791C240.453 132.48 239.76 133.89 238.713 135.098C237.666 136.306 236.304 137.241 234.628 137.902C232.969 138.562 231.076 138.892 228.949 138.892ZM234.218 122.604C234.218 121.556 233.984 120.622 233.517 119.8C233.066 118.962 232.429 118.31 231.608 117.843C230.786 117.375 229.851 117.142 228.804 117.142C227.741 117.142 226.774 117.383 225.904 117.867C225.05 118.35 224.365 119.011 223.85 119.848C223.35 120.686 223.084 121.605 223.052 122.604H234.218Z"/>
</mask>
<path d="M134.309 103.366H141.56V132.367H156.64V138.361H134.309V103.366ZM172.977 138.892C170.367 138.892 168.095 138.328 166.162 137.201C164.229 136.073 162.738 134.486 161.691 132.44C160.644 130.377 160.12 128.001 160.12 125.31C160.12 122.62 160.636 120.251 161.667 118.205C162.714 116.159 164.204 114.58 166.138 113.468C168.087 112.34 170.367 111.776 172.977 111.776C175.587 111.776 177.867 112.34 179.817 113.468C181.766 114.58 183.265 116.159 184.312 118.205C185.359 120.251 185.883 122.62 185.883 125.31C185.883 128.001 185.359 130.377 184.312 132.44C183.265 134.486 181.766 136.073 179.817 137.201C177.867 138.328 175.587 138.892 172.977 138.892ZM173.026 133.334C174.218 133.334 175.233 132.996 176.071 132.319C176.908 131.626 177.537 130.675 177.956 129.467C178.375 128.259 178.584 126.873 178.584 125.31C178.584 123.747 178.375 122.362 177.956 121.153C177.537 119.929 176.908 118.97 176.071 118.278C175.233 117.585 174.218 117.238 173.026 117.238C171.817 117.238 170.786 117.585 169.932 118.278C169.094 118.97 168.458 119.929 168.023 121.153C167.588 122.362 167.37 123.747 167.37 125.31C167.37 126.857 167.588 128.243 168.023 129.467C168.458 130.675 169.094 131.626 169.932 132.319C170.786 132.996 171.817 133.334 173.026 133.334ZM205.362 119.897C205.217 118.978 204.757 118.245 203.984 117.698C203.211 117.134 202.236 116.852 201.06 116.852C200.286 116.852 199.586 116.972 198.957 117.214C198.345 117.44 197.862 117.762 197.507 118.181C197.153 118.584 196.984 119.043 197 119.558C196.951 120.799 198.079 121.669 200.383 122.169L205.072 123.135C207.617 123.667 209.51 124.513 210.751 125.673C212.008 126.833 212.644 128.355 212.66 130.24C212.644 131.948 212.145 133.455 211.162 134.76C210.195 136.065 208.834 137.08 207.078 137.805C205.321 138.53 203.299 138.892 201.012 138.892C198.675 138.892 196.653 138.562 194.945 137.902C193.238 137.225 191.892 136.266 190.91 135.026C189.943 133.769 189.363 132.287 189.169 130.579H196.371C196.532 131.61 197.016 132.391 197.821 132.923C198.627 133.455 199.69 133.721 201.012 133.721C202.317 133.721 203.364 133.471 204.153 132.971C204.959 132.472 205.362 131.803 205.362 130.965C205.362 130.289 205.072 129.741 204.492 129.322C203.928 128.887 203.025 128.533 201.785 128.259L197.435 127.389C194.954 126.905 193.068 126.027 191.78 124.754C190.491 123.482 189.862 121.878 189.894 119.945C189.878 118.286 190.321 116.844 191.224 115.619C192.126 114.379 193.415 113.428 195.09 112.767C196.766 112.107 198.724 111.776 200.963 111.776C203.138 111.776 205.039 112.107 206.667 112.767C208.294 113.428 209.567 114.37 210.485 115.595C211.42 116.803 211.951 118.237 212.08 119.897H205.362ZM228.949 138.892C226.291 138.892 223.987 138.345 222.037 137.249C220.104 136.153 218.613 134.591 217.566 132.561C216.519 130.514 215.995 128.114 215.995 125.359C215.995 122.668 216.511 120.3 217.542 118.253C218.589 116.191 220.072 114.596 221.989 113.468C223.906 112.34 226.13 111.776 228.659 111.776C231.011 111.776 233.114 112.276 234.967 113.275C236.836 114.258 238.302 115.748 239.365 117.746C240.445 119.744 240.985 122.185 240.985 125.069V127.099H223.052C223.052 128.404 223.294 129.54 223.777 130.506C224.277 131.473 224.978 132.222 225.88 132.754C226.798 133.269 227.87 133.527 229.094 133.527C230.27 133.527 231.285 133.294 232.139 132.826C232.993 132.343 233.605 131.69 233.976 130.869H240.791C240.453 132.48 239.76 133.89 238.713 135.098C237.666 136.306 236.304 137.241 234.628 137.902C232.969 138.562 231.076 138.892 228.949 138.892ZM234.218 122.604C234.218 121.556 233.984 120.622 233.517 119.8C233.066 118.962 232.429 118.31 231.608 117.843C230.786 117.375 229.851 117.142 228.804 117.142C227.741 117.142 226.774 117.383 225.904 117.867C225.05 118.35 224.365 119.011 223.85 119.848C223.35 120.686 223.084 121.605 223.052 122.604H234.218Z" fill="#FFEEEE"/>
<path d="M134.309 103.366V101.866H132.809V103.366H134.309ZM141.56 103.366H143.06V101.866H141.56V103.366ZM141.56 132.367H140.06V133.867H141.56V132.367ZM156.64 132.367H158.14V130.867H156.64V132.367ZM156.64 138.361V139.861H158.14V138.361H156.64ZM134.309 138.361H132.809V139.861H134.309V138.361ZM134.309 103.366V104.866H141.56V103.366V101.866H134.309V103.366ZM141.56 103.366H140.06V132.367H141.56H143.06V103.366H141.56ZM141.56 132.367V133.867H156.64V132.367V130.867H141.56V132.367ZM156.64 132.367H155.14V138.361H156.64H158.14V132.367H156.64ZM156.64 138.361V136.861H134.309V138.361V139.861H156.64V138.361ZM134.309 138.361H135.809V103.366H134.309H132.809V138.361H134.309ZM161.691 132.44L160.354 133.119L160.356 133.123L161.691 132.44ZM161.667 118.205L160.332 117.522L160.327 117.53L161.667 118.205ZM166.138 113.468L166.886 114.769L166.889 114.767L166.138 113.468ZM179.817 113.468L179.065 114.767L179.074 114.771L179.817 113.468ZM184.312 132.44L185.647 133.123L185.649 133.119L184.312 132.44ZM176.071 132.319L177.013 133.486L177.02 133.48L177.027 133.475L176.071 132.319ZM177.956 121.153L176.536 121.639L176.538 121.645L177.956 121.153ZM169.932 118.278L168.987 117.113L168.976 117.122L169.932 118.278ZM168.023 121.153L169.434 121.662L169.436 121.656L168.023 121.153ZM168.023 129.467L166.609 129.969L166.612 129.975L168.023 129.467ZM169.932 132.319L168.976 133.475L168.988 133.485L169.001 133.494L169.932 132.319ZM172.977 138.892V137.392C170.588 137.392 168.586 136.878 166.918 135.905L166.162 137.201L165.406 138.496C167.605 139.779 170.146 140.392 172.977 140.392V138.892ZM166.162 137.201L166.918 135.905C165.239 134.926 163.947 133.554 163.026 131.756L161.691 132.44L160.356 133.123C161.53 135.417 163.218 137.22 165.406 138.496L166.162 137.201ZM161.691 132.44L163.028 131.761C162.104 129.941 161.62 127.803 161.62 125.31H160.12H158.62C158.62 128.198 159.183 130.814 160.354 133.119L161.691 132.44ZM160.12 125.31H161.62C161.62 122.813 162.098 120.683 163.006 118.88L161.667 118.205L160.327 117.53C159.174 119.819 158.62 122.426 158.62 125.31H160.12ZM161.667 118.205L163.002 118.888C163.922 117.092 165.212 115.731 166.886 114.769L166.138 113.468L165.39 112.168C163.197 113.429 161.507 115.226 160.332 117.522L161.667 118.205ZM166.138 113.468L166.889 114.767C168.576 113.791 170.588 113.276 172.977 113.276V111.776V110.276C170.146 110.276 167.599 110.89 165.387 112.17L166.138 113.468ZM172.977 111.776V113.276C175.366 113.276 177.378 113.791 179.066 114.767L179.817 113.468L180.568 112.17C178.356 110.89 175.809 110.276 172.977 110.276V111.776ZM179.817 113.468L179.074 114.771C180.763 115.735 182.059 117.095 182.977 118.888L184.312 118.205L185.647 117.522C184.47 115.222 182.769 113.425 180.56 112.165L179.817 113.468ZM184.312 118.205L182.977 118.888C183.898 120.69 184.383 122.817 184.383 125.31H185.883H187.383C187.383 122.422 186.82 119.813 185.647 117.522L184.312 118.205ZM185.883 125.31H184.383C184.383 127.803 183.899 129.941 182.974 131.761L184.312 132.44L185.649 133.119C186.82 130.814 187.383 128.198 187.383 125.31H185.883ZM184.312 132.44L182.977 131.756C182.058 133.551 180.76 134.922 179.066 135.902L179.817 137.201L180.568 138.499C182.772 137.224 184.471 135.421 185.647 133.123L184.312 132.44ZM179.817 137.201L179.066 135.902C177.378 136.878 175.366 137.392 172.977 137.392V138.892V140.392C175.809 140.392 178.356 139.779 180.568 138.499L179.817 137.201ZM173.026 133.334V134.834C174.522 134.834 175.88 134.401 177.013 133.486L176.071 132.319L175.128 131.152C174.586 131.59 173.914 131.834 173.026 131.834V133.334ZM176.071 132.319L177.027 133.475C178.111 132.578 178.88 131.38 179.373 129.958L177.956 129.467L176.538 128.976C176.194 129.971 175.706 130.674 175.115 131.163L176.071 132.319ZM177.956 129.467L179.373 129.958C179.857 128.561 180.084 127.005 180.084 125.31H178.584H177.084C177.084 126.742 176.892 127.956 176.538 128.976L177.956 129.467ZM178.584 125.31H180.084C180.084 123.616 179.857 122.059 179.373 120.662L177.956 121.153L176.538 121.645C176.892 122.665 177.084 123.879 177.084 125.31H178.584ZM177.956 121.153L179.375 120.668C178.884 119.232 178.115 118.022 177.027 117.122L176.071 118.278L175.115 119.434C175.702 119.919 176.19 120.626 176.536 121.639L177.956 121.153ZM176.071 118.278L177.027 117.122C175.893 116.184 174.531 115.738 173.026 115.738V117.238V118.738C173.905 118.738 174.572 118.985 175.115 119.434L176.071 118.278ZM173.026 117.238V115.738C171.509 115.738 170.135 116.181 168.987 117.113L169.932 118.278L170.877 119.442C171.437 118.988 172.125 118.738 173.026 118.738V117.238ZM169.932 118.278L168.976 117.122C167.892 118.018 167.117 119.222 166.609 120.651L168.023 121.153L169.436 121.656C169.798 120.636 170.296 119.923 170.888 119.434L169.932 118.278ZM168.023 121.153L166.612 120.645C166.107 122.048 165.87 123.611 165.87 125.31H167.37H168.87C168.87 123.884 169.069 122.676 169.434 121.662L168.023 121.153ZM167.37 125.31H165.87C165.87 126.996 166.107 128.556 166.609 129.969L168.023 129.467L169.436 128.965C169.068 127.929 168.87 126.718 168.87 125.31H167.37ZM168.023 129.467L166.612 129.975C167.121 131.39 167.896 132.582 168.976 133.475L169.932 132.319L170.888 131.163C170.292 130.67 169.795 129.961 169.434 128.959L168.023 129.467ZM169.932 132.319L169.001 133.494C170.149 134.404 171.518 134.834 173.026 134.834V133.334V131.834C172.116 131.834 171.423 131.587 170.864 131.143L169.932 132.319ZM205.362 119.897L203.88 120.131L204.08 121.397H205.362V119.897ZM203.984 117.698L203.1 118.91L203.109 118.916L203.117 118.922L203.984 117.698ZM198.957 117.214L199.476 118.622L199.486 118.618L199.496 118.614L198.957 117.214ZM197.507 118.181L198.633 119.172L198.643 119.161L198.652 119.15L197.507 118.181ZM197 119.558L198.499 119.617L198.501 119.564L198.499 119.512L197 119.558ZM200.383 122.169L200.065 123.634L200.073 123.636L200.08 123.638L200.383 122.169ZM205.072 123.135L205.378 121.667L205.375 121.666L205.072 123.135ZM210.751 125.673L209.726 126.768L209.734 126.775L210.751 125.673ZM212.66 130.24L214.16 130.255L214.16 130.241L214.16 130.228L212.66 130.24ZM211.162 134.76L209.964 133.857L209.957 133.867L211.162 134.76ZM194.945 137.902L194.393 139.296L194.404 139.301L194.945 137.902ZM190.91 135.026L189.721 135.94L189.727 135.949L189.734 135.957L190.91 135.026ZM189.169 130.579V129.079H187.49L187.679 130.748L189.169 130.579ZM196.371 130.579L197.853 130.347L197.655 129.079H196.371V130.579ZM204.153 132.971L203.363 131.696L203.351 131.704L204.153 132.971ZM204.492 129.322L203.575 130.51L203.594 130.524L203.613 130.538L204.492 129.322ZM201.785 128.259L202.108 126.794L202.094 126.791L202.079 126.788L201.785 128.259ZM197.435 127.389L197.729 125.918L197.722 125.916L197.435 127.389ZM189.894 119.945L191.394 119.97L191.395 119.95L191.394 119.931L189.894 119.945ZM191.224 115.619L192.431 116.509L192.437 116.501L191.224 115.619ZM210.485 115.595L209.285 116.495L209.292 116.504L209.299 116.513L210.485 115.595ZM212.08 119.897V121.397H213.701L213.576 119.781L212.08 119.897ZM205.362 119.897L206.843 119.663C206.634 118.336 205.947 117.25 204.851 116.473L203.984 117.698L203.117 118.922C203.568 119.241 203.799 119.62 203.88 120.131L205.362 119.897ZM203.984 117.698L204.868 116.486C203.784 115.695 202.48 115.352 201.06 115.352V116.852V118.352C201.992 118.352 202.638 118.572 203.1 118.91L203.984 117.698ZM201.06 116.852V115.352C200.129 115.352 199.243 115.497 198.419 115.814L198.957 117.214L199.496 118.614C199.929 118.448 200.444 118.352 201.06 118.352V116.852ZM198.957 117.214L198.439 115.807C197.629 116.105 196.913 116.561 196.362 117.212L197.507 118.181L198.652 119.15C198.81 118.963 199.061 118.775 199.476 118.622L198.957 117.214ZM197.507 118.181L196.381 117.19C195.786 117.866 195.472 118.692 195.5 119.605L197 119.558L198.499 119.512C198.495 119.393 198.519 119.301 198.633 119.172L197.507 118.181ZM197 119.558L195.501 119.5C195.455 120.682 196.01 121.648 196.893 122.329C197.712 122.961 198.821 123.365 200.065 123.634L200.383 122.169L200.701 120.703C199.642 120.473 199.034 120.192 198.726 119.954C198.481 119.765 198.496 119.675 198.499 119.617L197 119.558ZM200.383 122.169L200.08 123.638L204.769 124.604L205.072 123.135L205.375 121.666L200.686 120.699L200.383 122.169ZM205.072 123.135L204.765 124.604C207.173 125.107 208.766 125.87 209.727 126.768L210.751 125.673L211.775 124.577C210.255 123.155 208.061 122.227 205.378 121.667L205.072 123.135ZM210.751 125.673L209.734 126.775C210.653 127.624 211.147 128.735 211.16 130.253L212.66 130.24L214.16 130.228C214.141 127.975 213.362 126.042 211.768 124.571L210.751 125.673ZM212.66 130.24L211.16 130.226C211.147 131.629 210.744 132.821 209.964 133.857L211.162 134.76L212.36 135.662C213.545 134.089 214.141 132.268 214.16 130.255L212.66 130.24ZM211.162 134.76L209.957 133.867C209.178 134.918 208.053 135.779 206.505 136.418L207.078 137.805L207.65 139.191C209.615 138.38 211.212 137.211 212.367 135.653L211.162 134.76ZM207.078 137.805L206.505 136.418C204.964 137.055 203.142 137.392 201.012 137.392V138.892V140.392C203.457 140.392 205.679 140.005 207.65 139.191L207.078 137.805ZM201.012 138.892V137.392C198.812 137.392 196.982 137.081 195.487 136.503L194.945 137.902L194.404 139.301C196.325 140.043 198.539 140.392 201.012 140.392V138.892ZM194.945 137.902L195.498 136.507C193.995 135.912 192.88 135.097 192.085 134.094L190.91 135.026L189.734 135.957C190.905 137.435 192.48 138.538 194.393 139.296L194.945 137.902ZM190.91 135.026L192.098 134.111C191.312 133.089 190.825 131.87 190.66 130.41L189.169 130.579L187.679 130.748C187.9 132.703 188.573 134.449 189.721 135.94L190.91 135.026ZM189.169 130.579V132.079H196.371V130.579V129.079H189.169V130.579ZM196.371 130.579L194.889 130.81C195.11 132.221 195.806 133.39 196.995 134.175L197.821 132.923L198.648 131.671C198.225 131.392 197.955 130.999 197.853 130.347L196.371 130.579ZM197.821 132.923L196.995 134.175C198.121 134.918 199.502 135.221 201.012 135.221V133.721V132.221C199.879 132.221 199.133 131.991 198.648 131.671L197.821 132.923ZM201.012 133.721V135.221C202.492 135.221 203.848 134.939 204.955 134.239L204.153 132.971L203.351 131.704C202.879 132.002 202.141 132.221 201.012 132.221V133.721ZM204.153 132.971L204.944 134.246C206.122 133.516 206.862 132.398 206.862 130.965H205.362H203.862C203.862 131.208 203.796 131.428 203.363 131.697L204.153 132.971ZM205.362 130.965H206.862C206.862 129.776 206.314 128.788 205.37 128.106L204.492 129.322L203.613 130.538C203.829 130.694 203.862 130.802 203.862 130.965H205.362ZM204.492 129.322L205.408 128.134C204.582 127.497 203.421 127.084 202.108 126.794L201.785 128.259L201.461 129.723C202.63 129.981 203.274 130.277 203.575 130.51L204.492 129.322ZM201.785 128.259L202.079 126.788L197.729 125.918L197.435 127.389L197.141 128.86L201.491 129.73L201.785 128.259ZM197.435 127.389L197.722 125.916C195.42 125.468 193.844 124.685 192.834 123.687L191.78 124.754L190.726 125.822C192.293 127.369 194.487 128.343 197.148 128.861L197.435 127.389ZM191.78 124.754L192.834 123.687C191.857 122.723 191.368 121.525 191.394 119.97L189.894 119.945L188.395 119.92C188.356 122.232 189.124 124.24 190.726 125.822L191.78 124.754ZM189.894 119.945L191.394 119.931C191.381 118.565 191.74 117.447 192.431 116.509L191.224 115.619L190.016 114.729C188.903 116.24 188.376 118.006 188.395 119.96L189.894 119.945ZM191.224 115.619L192.437 116.501C193.144 115.529 194.183 114.737 195.641 114.163L195.09 112.767L194.54 111.372C192.646 112.119 191.108 113.228 190.011 114.737L191.224 115.619ZM195.09 112.767L195.641 114.163C197.104 113.586 198.868 113.276 200.963 113.276V111.776V110.276C198.58 110.276 196.428 110.628 194.54 111.372L195.09 112.767ZM200.963 111.776V113.276C202.989 113.276 204.692 113.584 206.103 114.157L206.667 112.767L207.231 111.378C205.387 110.629 203.287 110.276 200.963 110.276V111.776ZM206.667 112.767L206.103 114.157C207.515 114.731 208.553 115.519 209.285 116.495L210.485 115.595L211.685 114.695C210.58 113.222 209.073 112.125 207.231 111.378L206.667 112.767ZM210.485 115.595L209.299 116.513C210.038 117.469 210.476 118.618 210.585 120.013L212.08 119.897L213.576 119.781C213.426 117.857 212.801 116.138 211.672 114.677L210.485 115.595ZM212.08 119.897V118.397H205.362V119.897V121.397H212.08V119.897ZM222.037 137.249L221.298 138.554L221.302 138.557L222.037 137.249ZM217.566 132.561L216.231 133.244L216.233 133.248L217.566 132.561ZM217.542 118.253L216.205 117.574L216.203 117.578L217.542 118.253ZM221.989 113.468L222.749 114.761L221.989 113.468ZM234.967 113.275L234.255 114.595L234.262 114.599L234.269 114.603L234.967 113.275ZM239.365 117.746L238.041 118.451L238.046 118.459L239.365 117.746ZM240.985 127.099V128.599H242.485V127.099H240.985ZM223.052 127.099V125.599H221.552V127.099H223.052ZM223.777 130.506L222.436 131.177L222.44 131.186L222.445 131.195L223.777 130.506ZM225.88 132.754L225.118 134.046L225.132 134.054L225.146 134.062L225.88 132.754ZM232.139 132.826L232.859 134.142L232.869 134.137L232.878 134.132L232.139 132.826ZM233.976 130.869V129.369H233.007L232.609 130.252L233.976 130.869ZM240.791 130.869L242.259 131.177L242.639 129.369H240.791V130.869ZM238.713 135.098L239.846 136.081L238.713 135.098ZM234.628 137.902L234.078 136.506L234.074 136.508L234.628 137.902ZM234.218 122.604V124.104H235.718V122.604H234.218ZM233.517 119.8L232.196 120.511L232.204 120.526L232.213 120.542L233.517 119.8ZM225.904 117.867L225.176 116.555L225.165 116.561L225.904 117.867ZM223.85 119.848L222.572 119.062L222.567 119.071L222.561 119.08L223.85 119.848ZM223.052 122.604L221.553 122.555L221.503 124.104H223.052V122.604ZM228.949 138.892V137.392C226.499 137.392 224.458 136.889 222.772 135.941L222.037 137.249L221.302 138.557C223.515 139.8 226.082 140.392 228.949 140.392V138.892ZM222.037 137.249L222.777 135.944C221.104 134.996 219.817 133.651 218.899 131.873L217.566 132.561L216.233 133.248C217.41 135.53 219.103 137.311 221.298 138.554L222.037 137.249ZM217.566 132.561L218.902 131.877C217.982 130.081 217.495 127.923 217.495 125.359H215.995H214.495C214.495 128.305 215.056 130.948 216.231 133.244L217.566 132.561ZM215.995 125.359H217.495C217.495 122.862 217.973 120.732 218.882 118.928L217.542 118.253L216.203 117.578C215.049 119.867 214.495 122.474 214.495 125.359H215.995ZM217.542 118.253L218.88 118.933C219.802 117.115 221.089 115.738 222.749 114.761L221.989 113.468L221.228 112.175C219.054 113.454 217.376 115.267 216.205 117.574L217.542 118.253ZM221.989 113.468L222.749 114.761C224.406 113.787 226.36 113.276 228.659 113.276V111.776V110.276C225.9 110.276 223.406 110.894 221.228 112.175L221.989 113.468ZM228.659 111.776V113.276C230.793 113.276 232.646 113.728 234.255 114.595L234.967 113.275L235.679 111.955C233.582 110.824 231.23 110.276 228.659 110.276V111.776ZM234.967 113.275L234.269 114.603C235.852 115.435 237.109 116.698 238.041 118.451L239.365 117.746L240.689 117.041C239.495 114.798 237.82 113.08 235.665 111.947L234.967 113.275ZM239.365 117.746L238.046 118.459C238.979 120.186 239.485 122.368 239.485 125.069H240.985H242.485C242.485 122.001 241.911 119.301 240.685 117.033L239.365 117.746ZM240.985 125.069H239.485V127.099H240.985H242.485V125.069H240.985ZM240.985 127.099V125.599H223.052V127.099V128.599H240.985V127.099ZM223.052 127.099H221.552C221.552 128.589 221.829 129.963 222.436 131.177L223.777 130.506L225.119 129.835C224.759 129.116 224.552 128.219 224.552 127.099H223.052ZM223.777 130.506L222.445 131.195C223.068 132.402 223.963 133.365 225.118 134.046L225.88 132.754L226.641 131.462C225.992 131.079 225.485 130.544 225.11 129.818L223.777 130.506ZM225.88 132.754L225.146 134.062C226.322 134.722 227.655 135.027 229.094 135.027V133.527V132.027C228.085 132.027 227.274 131.816 226.614 131.446L225.88 132.754ZM229.094 133.527V135.027C230.47 135.027 231.743 134.753 232.859 134.142L232.139 132.826L231.419 131.51C230.828 131.834 230.071 132.027 229.094 132.027V133.527ZM232.139 132.826L232.878 134.132C233.983 133.506 234.83 132.624 235.343 131.485L233.976 130.869L232.609 130.252C232.381 130.757 232.003 131.18 231.4 131.521L232.139 132.826ZM233.976 130.869V132.369H240.791V130.869V129.369H233.976V130.869ZM240.791 130.869L239.323 130.561C239.036 131.93 238.454 133.106 237.579 134.116L238.713 135.098L239.846 136.081C241.066 134.674 241.87 133.03 242.259 131.177L240.791 130.869ZM238.713 135.098L237.579 134.116C236.709 135.119 235.558 135.923 234.078 136.506L234.628 137.902L235.179 139.297C237.05 138.559 238.622 137.494 239.846 136.081L238.713 135.098ZM234.628 137.902L234.074 136.508C232.621 137.086 230.921 137.392 228.949 137.392V138.892V140.392C231.23 140.392 233.317 140.038 235.183 139.295L234.628 137.902ZM234.218 122.604H235.718C235.718 121.325 235.43 120.13 234.821 119.059L233.517 119.8L232.213 120.542C232.538 121.114 232.718 121.788 232.718 122.604H234.218ZM233.517 119.8L234.837 119.089C234.254 118.005 233.417 117.146 232.349 116.539L231.608 117.843L230.866 119.146C231.441 119.473 231.878 119.92 232.196 120.511L233.517 119.8ZM231.608 117.843L232.349 116.539C231.278 115.929 230.083 115.642 228.804 115.642V117.142V118.642C229.62 118.642 230.294 118.821 230.866 119.146L231.608 117.843ZM228.804 117.142V115.642C227.504 115.642 226.284 115.94 225.176 116.555L225.904 117.867L226.632 119.178C227.264 118.827 227.978 118.642 228.804 118.642V117.142ZM225.904 117.867L225.165 116.561C224.09 117.17 223.22 118.009 222.572 119.062L223.85 119.848L225.127 120.635C225.51 120.012 226.01 119.53 226.643 119.172L225.904 117.867ZM223.85 119.848L222.561 119.08C221.929 120.142 221.593 121.309 221.553 122.555L223.052 122.604L224.551 122.652C224.576 121.9 224.772 121.231 225.138 120.617L223.85 119.848ZM223.052 122.604V124.104H234.218V122.604V121.104H223.052V122.604Z" fill="#6A0909" mask="url(#path-3-outside-1_218_8835)"/>
<defs>
<filter id="filter0_f_218_8835" x="9.91821e-05" y="-2.28882e-05" width="374.721" height="241.721" filterUnits="userSpaceOnUse" color-interpolation-filters="sRGB">
<feFlood flood-opacity="0" result="BackgroundImageFix"/>
<feBlend mode="normal" in="SourceGraphic" in2="BackgroundImageFix" result="shape"/>
<feGaussianBlur stdDeviation="24.1804" result="effect1_foregroundBlur_218_8835"/>
</filter>
</defs>
</svg>
