<svg width="28" height="51" viewBox="0 0 28 51" fill="none" xmlns="http://www.w3.org/2000/svg">
<path d="M10.0525 1.5474L11.9464 4.2796C13.7417 4.58317 17.8887 5.97963 20.114 9.13683C22.3394 12.294 21.5542 17.981 20.8835 20.4299L24.4346 22.0692C25.7959 17.212 27.9265 11.9297 23.4876 5.43318C19.7871 0.0172654 13.3274 0.7581 10.0525 1.5474Z" fill="#FC594A" stroke="#6A0909" stroke-width="2"/>
<path d="M24.6062 41.6478H2.60425V34.345L3.05737 34.0491C4.44241 33.1424 5.17636 32.2986 5.57788 31.5872C5.97567 30.8823 6.08528 30.2402 6.11792 29.6605C6.12857 29.4712 6.09919 29.2635 6.02222 28.973C5.98331 28.8262 5.93572 28.6719 5.87964 28.4896C5.82523 28.3126 5.76317 28.1114 5.70386 27.8968C5.45625 27.0006 5.26036 25.8759 5.51831 24.3011C6.02569 21.2035 7.81077 18.6633 10.5017 17.0765C11.3886 16.5535 11.9512 15.9244 12.2957 15.39C11.7255 15.382 11.0626 15.3971 10.4187 15.4593C9.88645 15.5107 9.01453 15.8042 8.05347 16.2171C7.1257 16.6157 6.22809 17.0745 5.69312 17.3714L4.87378 17.8265L4.36694 17.0384L1.69507 12.886L1.26831 12.223L1.81421 11.6526L8.77124 4.39679L8.02124 2.53937L7.51245 1.2796L8.86694 1.16827C9.96783 1.07785 10.9406 1.45451 11.6326 1.91925C11.9805 2.15298 12.2818 2.42497 12.5105 2.70538C12.5461 2.74904 12.5808 2.79845 12.6179 2.84991C15.7357 2.92497 20.9218 4.74891 22.9548 11.1087C24.3068 15.338 23.5561 18.8409 22.5457 21.722C22.2948 22.4371 22.0267 23.1176 21.7732 23.7542C21.5172 24.3972 21.2792 24.9871 21.075 25.5521C20.661 26.697 20.4373 27.606 20.4822 28.388C20.5588 29.7199 21.1537 30.9387 21.9226 31.9476C22.6925 32.9576 23.5867 33.6915 24.1394 34.0403L24.6062 34.3343V41.6478Z" fill="#FFF9F6" stroke="#6A0909" stroke-width="2"/>
<path d="M1.70739 46.5983C0.760417 43.9268 1.39173 41.9435 3.60133 40.6482H23.9612C26.1708 41.9435 26.8021 43.9268 25.8551 46.5983H1.70739Z" fill="#FFF9F6" stroke="#6A0909" stroke-width="2" stroke-linecap="round" stroke-linejoin="round"/>
<path d="M25.3815 46.5983H2.18076C1.91926 46.5983 1.70728 46.8158 1.70728 47.0841V49.5127C1.70728 49.7809 1.91926 49.9984 2.18076 49.9984H25.3815C25.643 49.9984 25.855 49.7809 25.855 49.5127V47.0841C25.855 46.8158 25.643 46.5983 25.3815 46.5983Z" fill="#FC594A" stroke="#6A0909" stroke-width="2" stroke-linecap="round" stroke-linejoin="round"/>
</svg>
